# xmcd
#
# Track frame offsets: 
#        150
#        13455
#        27452
#        37660
#        51795
#        63395
#        75177
#        89767
#        101515
#        114950
#        127380
#        140382
#        155342
#        170115
#        181067
#        193250
#        212905
#        224980
#        238195
#        251560
#        265185
#        276210
#        287015
#        299830
#
# Disc length: 4157 seconds
#
# Revision: 1
# Processed by: cddbd v1.5.2PL0 Copyright (c) Steve Scherf et al.
# Submitted via: ExactAudioCopy v0.95b3
#
DISCID=7c103b18
DTITLE=TONICO E TINOCO - Suas Modas Sertanejas (1-12, 1958) and Na Beira
DTITLE=Da Tuia (13-24, 1960)
DYEAR=1994
DGENRE=Country
TTITLE0=Cana Verde
TTITLE1=Saudade De Matão
TTITLE2=Rio Grande
TTITLE3=Adeus Morena Adeus
TTITLE4=Princesa
TTITLE5=Aparecida Do Norte
TTITLE6=Chico Mineiro
TTITLE7=Saudades De Ouro Preto
TTITLE8=Eu E A Lua
TTITLE9=Pé De Ipê
TTITLE10=Cabocla
TTITLE11=Tristeza Do Jeca
TTITLE12=Amei
TTITLE13=Brasileiro
TTITLE14=Segura A Saia
TTITLE15=João Palhaço
TTITLE16=Gaúcho Velho
TTITLE17=Sereno Da Madrugada
TTITLE18=Rei Do Gado
TTITLE19=Meu Sertão
TTITLE20=A Madastra
TTITLE21=Me Leva
TTITLE22=Carro De Boi
TTITLE23=Curitibana
EXTD=
EXTT0=
EXTT1=
EXTT2=
EXTT3=
EXTT4=
EXTT5=
EXTT6=
EXTT7=
EXTT8=
EXTT9=
EXTT10=
EXTT11=
EXTT12=
EXTT13=
EXTT14=
EXTT15=
EXTT16=
EXTT17=
EXTT18=
EXTT19=
EXTT20=
EXTT21=
EXTT22=
EXTT23=
PLAYORDER=
